<svg xmlns="http://www.w3.org/2000/svg" width="1280" height="640" viewBox="0 0 1280 640">
  <defs>
    <linearGradient id="tdBg" x1="0" y1="0" x2="1" y2="1">
      <stop offset="0" stop-color="#0D2D52"/>
      <stop offset="1" stop-color="#071A2F"/>
    </linearGradient>
  </defs>
  <rect width="1280" height="640" fill="url(#tdBg)"/>
  <rect x="64" y="64" width="1152" height="512" rx="28" fill="none" stroke="#74E6FF" stroke-width="2" opacity="0.52"/>
  <rect x="92" y="92" width="1096" height="456" rx="22" fill="#FFFFFF" opacity="0.08"/>

  <text x="112" y="184" fill="#FFFFFF" font-family="Arial, Helvetica, sans-serif" font-size="96" font-weight="800">Test Drive</text>
  <text x="118" y="254" fill="#74E6FF" font-family="Arial, Helvetica, sans-serif" font-size="42" font-weight="700">Test ideas, claims,</text>
  <text x="118" y="308" fill="#74E6FF" font-family="Arial, Helvetica, sans-serif" font-size="42" font-weight="700">and decisions</text>
  <text x="118" y="378" fill="#D8F7FF" font-family="Arial, Helvetica, sans-serif" font-size="30">Small tests. Clear signals.</text>
  <text x="118" y="418" fill="#D8F7FF" font-family="Arial, Helvetica, sans-serif" font-size="30">Evidence before commitment.</text>
  <rect x="118" y="478" width="358" height="54" rx="27" fill="#74E6FF"/>
  <text x="146" y="514" fill="#071A2F" font-family="Arial, Helvetica, sans-serif" font-size="25" font-weight="800">Claude + Codex agent skill</text>

  <g transform="translate(720 134)">
    <rect x="0" y="0" width="382" height="356" rx="22" fill="#FFFFFF" opacity="0.14" stroke="#74E6FF" stroke-width="2"/>
    <rect x="42" y="42" width="188" height="20" rx="10" fill="#74E6FF"/>
    <rect x="42" y="86" width="292" height="10" rx="5" fill="#D8F7FF" opacity="0.78"/>
    <rect x="42" y="116" width="236" height="10" rx="5" fill="#D8F7FF" opacity="0.58"/>

    <g transform="translate(42 166)">
      <circle cx="16" cy="16" r="16" fill="#74E6FF"/>
      <path d="M8 16 L14 22 L25 9" fill="none" stroke="#071A2F" stroke-width="5" stroke-linecap="round" stroke-linejoin="round"/>
      <rect x="52" y="8" width="190" height="12" rx="6" fill="#D8F7FF" opacity="0.82"/>
    </g>

    <g transform="translate(42 220)">
      <circle cx="16" cy="16" r="16" fill="#74E6FF" opacity="0.92"/>
      <path d="M8 16 L14 22 L25 9" fill="none" stroke="#071A2F" stroke-width="5" stroke-linecap="round" stroke-linejoin="round"/>
      <rect x="52" y="8" width="238" height="12" rx="6" fill="#D8F7FF" opacity="0.7"/>
    </g>

    <g transform="translate(42 274)">
      <circle cx="16" cy="16" r="16" fill="#74E6FF" opacity="0.84"/>
      <path d="M8 16 L14 22 L25 9" fill="none" stroke="#071A2F" stroke-width="5" stroke-linecap="round" stroke-linejoin="round"/>
      <rect x="52" y="8" width="156" height="12" rx="6" fill="#D8F7FF" opacity="0.58"/>
    </g>

    <g transform="translate(250 164)">
      <path d="M20 126 C44 76 78 42 126 20" fill="none" stroke="#74E6FF" stroke-width="12" stroke-linecap="round"/>
      <path d="M104 22 L130 18 L118 44" fill="none" stroke="#74E6FF" stroke-width="10" stroke-linecap="round" stroke-linejoin="round"/>
      <circle cx="20" cy="126" r="16" fill="#74E6FF"/>
      <circle cx="74" cy="58" r="13" fill="#D8F7FF"/>
      <rect x="7" y="160" width="128" height="10" rx="5" fill="#D8F7FF" opacity="0.76"/>
    </g>
  </g>
</svg>
